<svg xmlns="http://www.w3.org/2000/svg" viewBox="0 0 48 48"><g data-name="14-tasks"><path d="M31 48H5a5.006 5.006 0 0 1-5-5V9a1 1 0 0 1 .293-.707l8-8A1 1 0 0 1 9 0h22a5.006 5.006 0 0 1 5 5v22h-2V5a3 3 0 0 0-3-3H9.414L2 9.414V43a3 3 0 0 0 3 3h26a3 3 0 0 0 3-3v-2h2v2a5.006 5.006 0 0 1-5 5z"/><path d="M7 10H5V8h2a1 1 0 0 0 1-1V1h2v6a3 3 0 0 1-3 3zM31.769 41a1 1 0 0 1-.707-.293l-2.769-2.769a1 1 0 0 1 0-1.415l15.231-15.23a1 1 0 0 1 1.414 0l2.769 2.769a1 1 0 0 1 0 1.415l-15.231 15.23a1 1 0 0 1-.707.293zm-1.355-3.77 1.355 1.356 13.817-13.817-1.355-1.355z"/><path d="M32 41h-3a1 1 0 0 1-1-1v-3h2v2h2zM32 9h-2V7a1 1 0 0 0-1-1h-2V4h2a3 3 0 0 1 3 3zM23 4h2v2h-2zM12 21H6a1 1 0 0 1-1-1v-6a1 1 0 0 1 1-1h6a1 1 0 0 1 1 1v6a1 1 0 0 1-1 1zm-5-2h4v-4H7zM12 31H6a1 1 0 0 1-1-1v-6a1 1 0 0 1 1-1h6a1 1 0 0 1 1 1v6a1 1 0 0 1-1 1zm-5-2h4v-4H7zM12 41H6a1 1 0 0 1-1-1v-6a1 1 0 0 1 1-1h6a1 1 0 0 1 1 1v6a1 1 0 0 1-1 1zm-5-2h4v-4H7zM15 14h17v2H15zM15 18h17v2H15zM15 24h17v2H15zM15 28h17v2H15zM15 34h11v2H15zM15 38h11v2H15z"/><path d="m5.292 19.293 6-6 1.414 1.414-6 6zM5.292 29.293l6-6 1.414 1.414-6 6zM5.293 39.293l6-6 1.414 1.415-6 6z"/></g></svg>